<svg width="58" height="62" viewBox="0 0 58 62" fill="none" xmlns="http://www.w3.org/2000/svg">
<path d="M54.0155 28.7127H4.03091C2.27652 28.7127 0.849365 27.2951 0.849365 25.5524V16.0842C0.849365 14.3415 2.27652 12.9233 4.03091 12.9233H54.0149C55.7687 12.9233 57.1952 14.3415 57.1952 16.0842V25.553C57.1958 27.2951 55.7693 28.7127 54.0155 28.7127ZM4.03091 15.3455C3.62751 15.3455 3.28687 15.684 3.28687 16.0842V25.553C3.28687 25.9599 3.6208 26.2912 4.03091 26.2912H54.0149C54.4244 26.2912 54.7577 25.9599 54.7577 25.553V16.0842C54.7577 15.6834 54.4171 15.3455 54.0149 15.3455H4.03091Z" fill="white"/>
<path d="M47.0447 61.149H10.999C7.62182 61.149 4.87415 58.4192 4.87415 55.0627V27.5017C4.87415 26.8332 5.42015 26.2906 6.0929 26.2906C6.76565 26.2906 7.31165 26.8332 7.31165 27.5017V55.0627C7.31165 57.0834 8.9661 58.7268 10.999 58.7268H47.0447C49.077 58.7268 50.7308 57.0834 50.7308 55.0627V27.5017C50.7308 26.8332 51.2768 26.2906 51.9496 26.2906C52.6223 26.2906 53.1683 26.8332 53.1683 27.5017V55.0627C53.1683 58.4192 50.4213 61.149 47.0447 61.149Z" fill="white"/>
<path d="M29.0226 61.149C28.3498 61.149 27.8038 60.607 27.8038 59.9379V27.5017C27.8038 26.8332 28.3498 26.2906 29.0226 26.2906C29.6953 26.2906 30.2413 26.8332 30.2413 27.5017V59.9373C30.2413 60.607 29.6959 61.149 29.0226 61.149Z" fill="white"/>
<path d="M13.8113 15.3412C9.99666 13.2873 8.57316 8.53259 10.6383 4.74133C12.7023 0.951884 17.4865 -0.463255 21.303 1.58709C27.1171 4.7165 30.2565 13.4471 30.387 13.8171L28.0878 14.6207C28.0585 14.5383 25.1256 6.39929 20.1434 3.71737C17.5078 2.30162 14.2062 3.27896 12.7821 5.89427C11.3568 8.512 12.3391 11.794 14.9734 13.2116L13.8113 15.3412Z" fill="white"/>
<path d="M44.2314 15.3412L43.0711 13.2109C44.3478 12.5237 45.2783 11.3846 45.6927 10.0034C46.1064 8.62159 45.9535 7.16224 45.2618 5.89486C44.572 4.62626 43.4264 3.70221 42.0364 3.29105C40.6458 2.87989 39.1784 3.03128 37.9024 3.71735C32.9202 6.39866 29.9872 14.5377 29.958 14.62L27.6588 13.8165C27.7892 13.4465 30.9281 4.71588 36.7422 1.58707C38.5898 0.59278 40.7183 0.373576 42.7317 0.969424C44.7469 1.56467 46.4062 2.90472 47.4062 4.74131C48.4074 6.5773 48.6286 8.69122 48.029 10.6937C47.4288 12.6956 46.0802 14.3457 44.2314 15.3412Z" fill="white"/>
<path d="M51.9496 44.9313H6.0929C5.42015 44.9313 4.87415 44.3887 4.87415 43.7202C4.87415 43.0517 5.42015 42.5092 6.0929 42.5092H51.9496C52.6223 42.5092 53.1683 43.0517 53.1683 43.7202C53.1683 44.3887 52.6229 44.9313 51.9496 44.9313Z" fill="white"/>
</svg>
