<svg width="26" height="30" viewBox="0 0 26 30" fill="none" xmlns="http://www.w3.org/2000/svg">
<path fill-rule="evenodd" clip-rule="evenodd" d="M18.8673 0.0761497C19.241 -0.0786313 19.6711 0.00692445 19.9571 0.292922C20.8656 1.20142 22.0538 3.17065 23.0159 6.21082C23.9873 9.28039 24.75 13.5081 24.75 19C24.75 19.5523 24.3023 20 23.75 20H20.25V29C20.25 29.5523 19.8023 30 19.25 30C18.6977 30 18.25 29.5523 18.25 29V1.00003C18.25 0.595567 18.4936 0.230931 18.8673 0.0761497ZM20.25 18H22.7412C22.6553 13.1836 21.9551 9.48755 21.1091 6.81424C20.8307 5.93457 20.5385 5.1715 20.25 4.51895V18Z" fill="white"/>
<path fill-rule="evenodd" clip-rule="evenodd" d="M6.25 0C6.80228 0 7.25 0.447715 7.25 1V29C7.25 29.5523 6.80228 30 6.25 30C5.69772 30 5.25 29.5523 5.25 29V1C5.25 0.447715 5.69772 0 6.25 0Z" fill="white"/>
<path fill-rule="evenodd" clip-rule="evenodd" d="M1.75 0C2.30228 0 2.75 0.447715 2.75 1V6.5C2.75 7.05686 2.94203 7.81518 3.45088 8.41656C3.93001 8.98281 4.76446 9.5 6.24993 9.5C6.80221 9.5 7.24993 9.94771 7.24993 10.5C7.24993 11.0523 6.80221 11.5 6.24993 11.5C4.23547 11.5 2.81995 10.7672 1.9241 9.70844C1.05797 8.68482 0.75 7.44314 0.75 6.5V1C0.75 0.447715 1.19772 0 1.75 0Z" fill="white"/>
<path fill-rule="evenodd" clip-rule="evenodd" d="M10.75 0C10.1977 0 9.75 0.447715 9.75 1V6.5C9.75 7.05686 9.55797 7.81518 9.04912 8.41656C8.56999 8.98281 7.7354 9.5 6.24993 9.5C5.69765 9.5 5.25007 9.94771 5.25007 10.5C5.25007 11.0523 5.69765 11.5 6.24993 11.5C8.26439 11.5 9.68005 10.7672 10.5759 9.70844C11.442 8.68482 11.75 7.44314 11.75 6.5V1C11.75 0.447715 11.3023 0 10.75 0Z" fill="white"/>
</svg>
