<svg width="26" height="28" viewBox="0 0 26 28" fill="none" xmlns="http://www.w3.org/2000/svg">
<path d="M25.0938 0.767C24.9934 0.317 24.6147 0 24.1825 0C24.1806 0 24.1788 0 24.1769 0C19.2391 0.033 7.23156 0.916 2.38375 8.38C-0.134376 12.258 -0.350938 17.293 1.73969 23.345C1.75562 23.392 1.78844 23.424 1.81 23.467C1.06281 25.44 0.773125 26.753 0.765624 26.79C0.656875 27.33 0.980312 27.862 1.48656 27.978C1.55219 27.993 1.61781 28 1.68344 28C2.11562 28 2.50469 27.679 2.59937 27.21C2.61906 27.108 5.00781 16.837 13.4528 10.832C13.8841 10.526 14.0003 9.905 13.7125 9.445C13.4247 8.985 12.8434 8.86 12.4122 9.168C7.62344 12.573 4.67406 17.176 2.93969 20.824C1.69844 16.246 2.02375 12.447 3.92594 9.519C7.66937 3.755 16.5484 2.365 21.9081 2.071C20.755 3.872 19.495 7.174 19.495 13C19.495 16.12 18.6653 18.522 17.0303 20.14C14.4091 22.731 10.1509 22.974 7.03656 22.724C6.51906 22.679 6.07 23.095 6.03062 23.646C5.99125 24.196 6.37844 24.676 6.89406 24.718C7.5175 24.769 8.18313 24.8 8.875 24.8C12.0456 24.8 15.7441 24.137 18.3044 21.606C20.3388 19.595 21.37 16.7 21.37 13.001C21.37 3.902 24.5856 1.905 24.6016 1.896C24.9916 1.687 25.1959 1.219 25.0938 0.767Z" fill="white"/>
</svg>
