<svg width="26" height="30" viewBox="0 0 26 30" fill="none" xmlns="http://www.w3.org/2000/svg">
<ellipse cx="18.4542" cy="9.32987" rx="1.0873" ry="1.08512" fill="white"/>
<ellipse cx="7.58112" cy="9.32987" rx="1.08731" ry="1.08512" fill="white"/>
<ellipse cx="7.58112" cy="22.3512" rx="1.08731" ry="1.08512" fill="white"/>
<ellipse cx="13.0177" cy="24.5215" rx="1.0873" ry="1.08512" fill="white"/>
<ellipse cx="4.31924" cy="15.7748" rx="1.08731" ry="1.08512" fill="white"/>
<ellipse cx="21.7161" cy="15.7748" rx="1.0873" ry="1.08512" fill="white"/>
<ellipse cx="18.4542" cy="22.3512" rx="1.0873" ry="1.08512" fill="white"/>
<mask id="path-8-inside-1_59762_160" fill="white">
<path fill-rule="evenodd" clip-rule="evenodd" d="M18.1715 27.0581C18.5798 26.8622 19.0726 26.9298 19.3885 27.2542L21.2144 29.1292C21.4819 29.4039 21.9234 29.4039 22.191 29.1292C22.4487 28.8645 22.4487 28.4427 22.191 28.1781L20.8343 26.7849C20.4084 26.3475 20.4728 25.6356 20.932 25.2333C23.5738 22.9195 25.25 19.4688 25.25 15.6145C25.25 8.6477 19.7735 3 13.0178 3C6.26218 3 0.785645 8.6477 0.785645 15.6145C0.785645 19.4288 2.42729 22.8477 5.02166 25.1608C5.47438 25.5644 5.53489 26.2708 5.11173 26.7054L3.67757 28.1781C3.41985 28.4427 3.41984 28.8645 3.67756 29.1291C3.94513 29.4039 4.38664 29.4039 4.65421 29.1292L6.53384 27.199C6.85245 26.8718 7.35039 26.8061 7.76021 27.0076C9.35297 27.7907 11.1358 28.229 13.0178 28.229C14.859 28.229 16.6053 27.8095 18.1715 27.0581ZM13.0178 26.8274C19.0228 26.8274 23.8909 21.8072 23.8909 15.6145C23.8909 9.42179 19.0228 4.40161 13.0178 4.40161C7.0128 4.40161 2.14478 9.42179 2.14478 15.6145C2.14478 21.8072 7.0128 26.8274 13.0178 26.8274ZM12.2583 15.298V11.5001V7.94092C12.2583 7.50942 12.6081 7.15963 13.0395 7.15963C13.471 7.15963 13.8208 7.50942 13.8208 7.94092V11.5001V15.298V15.8406V16.1226C13.8208 16.5661 13.4613 16.9257 13.0177 16.9257C12.5983 16.9257 12.2583 16.5857 12.2583 16.1663V15.8406V15.298Z"/>
</mask>
<path fill-rule="evenodd" clip-rule="evenodd" d="M18.1715 27.0581C18.5798 26.8622 19.0726 26.9298 19.3885 27.2542L21.2144 29.1292C21.4819 29.4039 21.9234 29.4039 22.191 29.1292C22.4487 28.8645 22.4487 28.4427 22.191 28.1781L20.8343 26.7849C20.4084 26.3475 20.4728 25.6356 20.932 25.2333C23.5738 22.9195 25.25 19.4688 25.25 15.6145C25.25 8.6477 19.7735 3 13.0178 3C6.26218 3 0.785645 8.6477 0.785645 15.6145C0.785645 19.4288 2.42729 22.8477 5.02166 25.1608C5.47438 25.5644 5.53489 26.2708 5.11173 26.7054L3.67757 28.1781C3.41985 28.4427 3.41984 28.8645 3.67756 29.1291C3.94513 29.4039 4.38664 29.4039 4.65421 29.1292L6.53384 27.199C6.85245 26.8718 7.35039 26.8061 7.76021 27.0076C9.35297 27.7907 11.1358 28.229 13.0178 28.229C14.859 28.229 16.6053 27.8095 18.1715 27.0581ZM13.0178 26.8274C19.0228 26.8274 23.8909 21.8072 23.8909 15.6145C23.8909 9.42179 19.0228 4.40161 13.0178 4.40161C7.0128 4.40161 2.14478 9.42179 2.14478 15.6145C2.14478 21.8072 7.0128 26.8274 13.0178 26.8274ZM12.2583 15.298V11.5001V7.94092C12.2583 7.50942 12.6081 7.15963 13.0395 7.15963C13.471 7.15963 13.8208 7.50942 13.8208 7.94092V11.5001V15.298V15.8406V16.1226C13.8208 16.5661 13.4613 16.9257 13.0177 16.9257C12.5983 16.9257 12.2583 16.5857 12.2583 16.1663V15.8406V15.298Z" fill="white"/>
<path d="M6.53384 27.199L9.39954 29.9896L6.53384 27.199ZM7.76021 27.0076L9.52505 23.418L7.76021 27.0076ZM4.65421 29.1292L1.78851 26.3385L4.65421 29.1292ZM3.67757 28.1781L6.54325 30.9687L3.67757 28.1781ZM20.8343 26.7849L17.9686 29.5756L20.8343 26.7849ZM20.932 25.2333L18.2965 22.2243L20.932 25.2333ZM5.02166 25.1608L2.35971 28.1464L5.02166 25.1608ZM5.11173 26.7054L2.24605 23.9147L5.11173 26.7054ZM22.191 28.1781L25.0567 25.3874L22.191 28.1781ZM21.2144 29.1292L24.0801 26.3385L21.2144 29.1292ZM19.3885 27.2542L16.5228 30.0449L19.3885 27.2542ZM18.1715 27.0581L16.4413 23.4516L18.1715 27.0581ZM16.5228 30.0449L18.3487 31.9198L24.0801 26.3385L22.2542 24.4636L16.5228 30.0449ZM25.0567 25.3874L23.7 23.9942L17.9686 29.5756L19.3253 30.9688L25.0567 25.3874ZM23.5675 28.2423C27.0575 25.1855 29.25 20.6466 29.25 15.6145H21.25C21.25 18.2911 20.0901 20.6534 18.2965 22.2243L23.5675 28.2423ZM29.25 15.6145C29.25 6.5555 22.0978 -1 13.0178 -1V7C17.4492 7 21.25 10.7399 21.25 15.6145H29.25ZM13.0178 -1C3.93789 -1 -3.21436 6.5555 -3.21436 15.6145H4.78564C4.78564 10.7399 8.58647 7 13.0178 7V-1ZM-3.21436 15.6145C-3.21436 20.5943 -1.06704 25.0912 2.35971 28.1464L7.68361 22.1752C5.92162 20.6042 4.78564 18.2633 4.78564 15.6145H-3.21436ZM2.24605 23.9147L0.811883 25.3874L6.54325 30.9687L7.97742 29.496L2.24605 23.9147ZM7.51991 31.9198L9.39954 29.9896L3.66814 24.4083L1.78851 26.3385L7.51991 31.9198ZM5.99538 30.5972C8.12221 31.6429 10.5073 32.229 13.0178 32.229V24.229C11.7643 24.229 10.5837 23.9385 9.52505 23.418L5.99538 30.5972ZM13.0178 32.229C15.4736 32.229 17.8098 31.6681 19.9017 30.6645L16.4413 23.4516C15.4008 23.9508 14.2444 24.229 13.0178 24.229V32.229ZM13.0178 30.8274C21.3471 30.8274 27.8909 23.8994 27.8909 15.6145H19.8909C19.8909 19.715 16.6985 22.8274 13.0178 22.8274V30.8274ZM27.8909 15.6145C27.8909 7.32959 21.3471 0.401611 13.0178 0.401611V8.40161C16.6985 8.40161 19.8909 11.514 19.8909 15.6145H27.8909ZM13.0178 0.401611C4.68851 0.401611 -1.85522 7.32959 -1.85522 15.6145H6.14478C6.14478 11.514 9.33709 8.40161 13.0178 8.40161V0.401611ZM-1.85522 15.6145C-1.85522 23.8994 4.68851 30.8274 13.0178 30.8274V22.8274C9.33709 22.8274 6.14478 19.715 6.14478 15.6145H-1.85522ZM9.82083 15.298V15.8406H17.8208V15.298H9.82083ZM9.82083 15.8406V16.1226H17.8208V15.8406H9.82083ZM16.2583 16.1663V15.8406H8.25826V16.1663H16.2583ZM16.2583 15.8406V15.298H8.25826V15.8406H16.2583ZM16.2583 15.298V11.5001H8.25826V15.298H16.2583ZM16.2583 11.5001V7.94092H8.25826V11.5001H16.2583ZM9.82083 7.94092V11.5001H17.8208V7.94092H9.82083ZM9.82083 11.5001V15.298H17.8208V11.5001H9.82083ZM13.0395 3.15963C10.3989 3.15963 8.25826 5.30029 8.25826 7.94092H16.2583C16.2583 9.71856 14.8172 11.1596 13.0395 11.1596V3.15963ZM9.82083 16.1226C9.82083 14.357 11.2521 12.9257 13.0177 12.9257V20.9257C15.6704 20.9257 17.8208 18.7753 17.8208 16.1226H9.82083ZM9.39954 29.9896C8.40685 31.009 7.0021 31.0922 5.99538 30.5972L9.52505 23.418C7.69868 22.52 5.29805 22.7346 3.66814 24.4083L9.39954 29.9896ZM0.811854 31.9198C2.64966 33.807 5.6821 33.807 7.51991 31.9198L1.78851 26.3385C3.09118 25.0008 5.24061 25.0008 6.54327 26.3385L0.811854 31.9198ZM0.811883 25.3874C-0.958251 27.2051 -0.958264 30.1021 0.811854 31.9198L6.54327 26.3385C7.79795 27.6269 7.79794 29.6803 6.54325 30.9687L0.811883 25.3874ZM23.7 23.9942C25.0427 25.3731 24.644 27.2994 23.5675 28.2423L18.2965 22.2243C16.3015 23.9717 15.774 27.3219 17.9686 29.5756L23.7 23.9942ZM13.0395 11.1596C11.2619 11.1596 9.82083 9.71856 9.82083 7.94092H17.8208C17.8208 5.30028 15.6802 3.15963 13.0395 3.15963V11.1596ZM2.35971 28.1464C1.2963 27.1983 0.912631 25.2839 2.24605 23.9147L7.97742 29.496C10.1571 27.2577 9.65246 23.9306 7.68361 22.1752L2.35971 28.1464ZM25.0567 31.9198C26.8268 30.1021 26.8268 27.2051 25.0567 25.3874L19.3253 30.9688C18.0706 29.6803 18.0706 27.6269 19.3253 26.3385L25.0567 31.9198ZM18.3487 31.9198C20.1865 33.807 23.2189 33.807 25.0567 31.9198L19.3253 26.3385C20.628 25.0008 22.7774 25.0008 24.0801 26.3385L18.3487 31.9198ZM13.0177 12.9257C14.8074 12.9257 16.2583 14.3765 16.2583 16.1663H8.25826C8.25826 18.7948 10.3891 20.9257 13.0177 20.9257V12.9257ZM22.2542 24.4636C20.6381 22.804 18.2617 22.5783 16.4413 23.4516L19.9017 30.6645C18.898 31.1461 17.507 31.0555 16.5228 30.0449L22.2542 24.4636Z" fill="white" mask="url(#path-8-inside-1_59762_160)"/>
<rect x="12.25" y="4" width="4" height="1.5" transform="rotate(-90 12.25 4)" fill="white"/>
<rect x="5.25" width="15.5" height="1.5" rx="0.75" fill="white"/>
</svg>
